<?xml version="1.0" encoding="utf-8"?>
<!--Generator: Adobe Illustrator 27.4.0, SVG Export Plug-In . SVG Version: 6.00 Build 0)-->
<svg xmlns="http://www.w3.org/2000/svg" xmlns:xlink="http://www.w3.org/1999/xlink" xml:space="preserve" id="Layer_1" x="0" y="0" style="enable-background:new 0 0 500 500;" version="1.1" viewBox="0 0 500 500">
<style>
.st0{fill:url(#SVGID_1_);}
.st2{fill:#085FCE;}
.st3{fill-rule:evenodd;clip-rule:evenodd;fill:#3DE2FF;}
.st4{fill:#3DE2FF;}
.st5{fill:#1768D1;}
.st6{fill:#141D37;}
</style>
<g id="bg">
	<linearGradient id="SVGID_1_" x1="736.6579" x2="258.9178" y1="-234.6579" y2="243.0822" gradientTransform="matrix(1 0 0 -1 0 502)" gradientUnits="userSpaceOnUse">
		<stop offset=".2905" style="stop-color:#26738E"/>
		<stop offset=".7037" style="stop-color:#1A3B55"/>
		<stop offset=".9553" style="stop-color:#141D37"/>
	</linearGradient>
	<path d="M38 0h424c21 0 38 17 38 38v424c0 21-17 38-38 38H38c-21 0-38-17-38-38V38C0 17 17 0 38 0z" class="st0"/>
	<linearGradient id="SVGID_2" x1="11.1299" x2="214" y1="490.8701" y2="288" gradientTransform="matrix(1 0 0 -1 0 502)" gradientUnits="userSpaceOnUse">
		<stop offset="0" style="stop-color:#112E5F"/>
		<stop offset=".09679681" style="stop-color:#112C5A"/>
		<stop offset=".6607" style="stop-color:#132140"/>
		<stop offset="1" style="stop-color:#141D37"/>
	</linearGradient>
	<path d="M0 428V38C0 17 17 0 38 0h390" style="fill:url(#SVGID_2);"/>
</g>
<g id="file">
	<path d="M372.4 26.8H138.9c-7.6 0-13.8 5.9-13.8 13.2v419.3c0 7.3 6.2 13.2 13.8 13.2h316.2c7.6 0 13.8-5.9 13.8-13.2V128.7" class="st2"/>
	<path d="M468.9 128.6h-82.7c-7.6 0-13.8-5.9-13.8-13.2V26.8" class="st3"/>
	<path d="M57.5 54.4h101.2c14.6 0 26.4 11.8 26.4 26.4 0 14.6-11.8 26.4-26.4 26.4H57.5c-14.6 0-26.4-11.8-26.4-26.4 0-14.6 11.8-26.4 26.4-26.4z" class="st4"/>
</g>
<g id="meme">
	<path d="m197.8 245.5 3.5 14.9 56.3 18.9 3.3-12.6-63.1-21.2z" class="st5"/>
	<path d="m191.6 288.1-12.1-4.1-3.3 12.6 18.9 6.3-3.5-14.8z" class="st5"/>
	<path d="m215.3 318.5-.4-.1.1.2.3-.1z" class="st5"/>
	<path d="M250.1 307.8 209.2 294l3.5 14.9 17.9 6 18.8-4.4.7-2.7z" class="st5"/>
	<path d="m203.5 269.8 3.5 14.8 45.2 15.2 3.3-12.5-52-17.5z" class="st5"/>
	<path d="m246.9 329.1-3.1-1-40.6 9.5-5.9-25.1-23.2-7.8-1.5 5.8c-1.9 4.2-2 9.2-.1 13.8l26.1 60-29 62.8c-4 8.6-.2 18.8 8.4 22.8 2.3 1.1 4.8 1.6 7.2 1.6 6.5 0 12.7-3.7 15.6-10l32.3-69.8c2.1-4.4 2.1-9.6.2-14.1l-11.8-26.7 33.8 37.4 1.9 65.1c.3 9.3 7.9 16.7 17.1 16.7h.5c9.5-.3 16.9-8.2 16.7-17.7l-2-71.4c-.1-4.1-1.7-8-4.4-11l-36.8-40.7h-.1c-.4 0-.9-.1-1.3-.2z" class="st5"/>
	<path d="m185.9 263.9-1-.3-3.3 12.5 7.8 2.6-3.5-14.8z" class="st5"/>
	<path d="m195.6 236.1 5.6 1.9-.7-22-10.3-3.3 5.4 23.4z" class="st5"/>
	<path d="M158.7 202.7c.1-3.1.2-6.3.5-9.5 1.4-15.9 5.7-31.9 13.3-34.9 5.6-2.2 8.4-8.6 6.2-14.3-2.2-5.6-8.6-8.4-14.3-6.2-13.6 5.4-22.3 20-25.9 43.4-.2 1.4-.4 2.9-.6 4.3-1.7 13.7-1.1 25.3-1.1 25.8v.2c0 .2 0 .4.1.6 0 .2 0 .3.1.5 0 .2.1.4.1.5 0 .2.1.4.1.5 0 .2.1.3.1.4.1.2.1.4.2.6.1.1.1.2.2.4l.3.6c.1.1.1.2.2.4s.2.4.3.5.2.2.2.4c.1.2.2.3.3.5.1.1.2.3.3.4.1.1.2.2.3.4l.4.4.3.3c.2.1.3.3.5.4l.3.3c.2.1.3.2.5.3.1.1.3.2.4.3.2.1.3.2.5.3l.6.3c.1.1.2.1.4.2s.5.2.8.3c.1 0 .1.1.2.1h.2l33.8 10.6-5.8-24.9-14-4.4z" class="st5"/>
	<path d="M358.2 246c3.6-4.9 2.6-11.8-2.3-15.4-1.6-1.2-3.5-1.9-5.3-2.1l4.9 20.9c.9-1.1 1.8-2.2 2.7-3.4z" class="st5"/>
	<path d="m271.7 236.2-13 21 4.4 1.5.5-2 29.8 14.6c1.5.7 3.1 1.1 4.7 1.1h.2c2.7 0 24.7-.4 43.5-11.7l-5.4-23.2c-11.5 10.6-29.5 12.5-35.8 12.9l-28.9-14.2z" class="st5"/>
	<path d="M244.9 235.5c-1.3 0-2.6-.1-3.8-.2-10.5-1.2-19.4-7.1-24.8-15.3l-7.5-1.7.7 22.5 41.1 13.8 13.6-22-2.9-1.4c-4.8 2.7-10.4 4.3-16.4 4.3z" class="st5"/>
	<path d="M244.8 167.3c1.3 0 2.6.1 3.8.2 7.9.9 14.8 4.4 20.1 9.6.3.1.5.1.8.2.5-.9 1-2.6-.4-4.9-1-1.6-.9-3.5-.9-5.4.1-4.3.3-9.2-14.7-12.5-15.5-3.4-29.8 6.8-33.8 10-1 .8-1.9 1.6-2.8 2.4-.8-1-1.3-2-1.6-2.8-.4-1.1-.5-1.9-.6-2-.2-1.5-1.6-2.6-3.1-2.4-1.5.2-2.6 1.6-2.4 3.1 0 .2.4 2.7 1.9 5.5.5.9 1.1 1.8 1.9 2.7-1.6 2-2.4 3.6-2.4 4.4 0 3.1-2.4 5.1-4.8 7-3.5 2.8-6.4 5.3-3.7 11.1 2 4.3 3.7 5.6 4.8 6 1 .4 1.9 0 3.2-.6.2-.1.5-.2.7-.3 0-.3.1-.7.1-1 2.1-17.3 16.6-30.3 33.9-30.3z" class="st5"/>
	<path d="M241.4 232.1c17 1.9 32.3-10.3 34.2-27.2 1.9-17-10.3-32.2-27.2-34.2-17-1.9-32.3 10.3-34.2 27.2-1.9 17 10.3 32.3 27.2 34.2zm-6.5-30c-2.9 0-5.3-2.4-5.3-5.3s2.4-5.3 5.3-5.3 5.3 2.4 5.3 5.3-2.4 5.3-5.3 5.3zm1.7 6.2c0 .7-.6 1.3-1.3 1.3s-1.3-.6-1.3-1.3.6-1.3 1.3-1.3 1.3.6 1.3 1.3zm11 6.6c4.4 0 7.9 1.2 7.9 2.6 0 1.5-3.5 2.6-7.9 2.6s-7.9-1.2-7.9-2.6c0-1.4 3.5-2.6 7.9-2.6zm10.7-5.3c-.7 0-1.3-.6-1.3-1.3s.6-1.3 1.3-1.3c.7 0 1.3.6 1.3 1.3s-.6 1.3-1.3 1.3zm.5-7.5c-2.9 0-5.3-2.4-5.3-5.3s2.4-5.3 5.3-5.3 5.3 2.4 5.3 5.3-2.4 5.3-5.3 5.3z" class="st5"/>
	<path d="M168.4 134h.1l-1.5-6.3 139.3-32.6 45.5 194.7-139.3 32.6-37.8-161.6c-.4.2-.8.4-1.1.5-2.5 1-4.6 4.2-6.4 8.8l38.3 163.7 157.8-36.9-49.8-213.1-157.8 36.9 3.8 16.1c1.2-.7 2.5-1.3 3.8-1.8 1.6-.7 3.3-1 5.1-1z" class="st5"/>
	<path d="M237.4 196.7c0 .3-.1.6-.2.9-.1.3-.3.6-.5.8s-.5.4-.8.5-.6.2-.9.2-.6-.1-.9-.2c-.3-.1-.6-.3-.8-.5s-.4-.5-.5-.8-.2-.6-.2-.9.1-.6.2-.9c.1-.3.3-.6.5-.8s.5-.4.8-.5.6-.2.9-.2.6.1.9.2c.3.1.6.3.8.5s.4.5.5.8.2.6.2.9z" class="st5"/>
	<path d="M261.2 196.7c0 .3-.1.6-.2.9-.1.3-.3.6-.5.8-.2.2-.5.4-.8.5-.3.1-.6.2-.9.2-.3 0-.6-.1-.9-.2-.3-.1-.6-.3-.8-.5-.2-.2-.4-.5-.5-.8s-.2-.6-.2-.9.1-.6.2-.9c.1-.3.3-.6.5-.8.2-.2.5-.4.8-.5.3-.1.6-.2.9-.2s.6.1.9.2c.3.1.6.3.8.5.2.2.4.5.5.8s.2.6.2.9z" class="st5"/>
</g>
<g id="mimetypes">
	<path d="m201.215063 261.144409.2-17.6h-.7l-11.7 30.1-11.7-30.1h-.7l.2 17.6v28h-8.3v-58.5h11.5l9 23.2h.6l9-23.2h10.8v58.5h-8.3l.1-28z" class="st4"/>
	<path d="M220.902561 289.144409v-7.1h13.7v-44.3h-13.7v-7.1h36.8v7.1h-13.7v44.2h13.7v7.1h-36.8v.1z" class="st4"/>
	<path d="m301.690058 261.144409.2-17.6h-.7l-11.6 30.1-11.8-30.1h-.7l.2 17.6v28h-8.3v-58.5h11.5l9 23.2h.6l9-23.2h10.8v58.5h-8.2v-28z" class="st4"/>
	<path d="M321.877556 289.144409v-58.5h36.6v7.9h-27.2v17h26.2v7.9h-26.2v17.8h27.2v7.9h-36.6z" class="st4"/>
	<path d="m371.865053 300.644409 28.2-75.2h8.1l-28.2 75.2h-8.1z" class="st4"/>
	<path d="M191.615063 366.094405c-3.8 0-6.6-1-8.4-3s-2.7-4.7-2.7-7.9v-24.9h-13.2v-7.4h9.5c1.6 0 2.8-.3 3.4-1 .7-.7 1-1.8 1-3.5v-10.7h8.5v15.2h18.4v7.4h-18.4v28.5h18.4v7.4l-16.5-.1z" class="st4"/>
	<path d="M251.902561 322.894405h9.2l-20.9 51.6c-1.1 2.8-2.6 4.9-4.4 6.3s-4.4 2.1-7.8 2.1h-7.3v-7.4h10.2l3.9-10-17.4-42.6h9.6l6.9 18.1 5.4 14.8h.5l5.4-14.8 6.7-18.1z" class="st4"/>
	<path d="M271.090058 322.894405h9.1v7.4h.5c1.3-2.6 3-4.7 5.1-6.1 2.1-1.5 4.8-2.2 8-2.2 5.1 0 9.1 1.9 12.1 5.7s4.5 9.4 4.5 16.9-1.5 13.1-4.5 16.9-7.1 5.7-12.1 5.7c-3.2 0-5.8-.7-8-2.2-2.1-1.5-3.8-3.5-5.1-6.2h-.5v24.1h-9.1v-60zm18.9 36.8c3.5 0 6.1-1.1 8-3.2s2.8-4.9 2.8-8.5v-7c0-3.5-.9-6.3-2.8-8.5s-4.5-3.2-8-3.2c-1.3 0-2.6.2-3.8.5-1.2.3-2.2.8-3.1 1.5s-1.6 1.5-2.1 2.5-.8 2.1-.8 3.5v14.4c0 1.3.3 2.5.8 3.5s1.2 1.8 2.1 2.5 1.9 1.2 3.1 1.5 2.4.5 3.8.5z" class="st4"/>
	<path d="M340.677556 367.094405c-3.3 0-6.2-.5-8.9-1.6-2.6-1.1-4.8-2.6-6.6-4.5-1.8-2-3.1-4.3-4.1-7.1-.9-2.8-1.4-5.9-1.4-9.3 0-3.5.5-6.6 1.5-9.4 1-2.8 2.4-5.2 4.1-7.2 1.8-2 3.9-3.5 6.4-4.6s5.3-1.6 8.4-1.6c3 0 5.8.5 8.2 1.6 2.5 1 4.5 2.5 6.3 4.4 1.7 1.9 3.1 4.2 4 6.8.9 2.6 1.4 5.5 1.4 8.7v3.4h-31v1.4c0 3.4 1.1 6.2 3.2 8.3 2.1 2.1 5.1 3.2 8.8 3.2 2.8 0 5.2-.6 7.2-1.8 2-1.2 3.6-2.8 4.8-4.8l5.7 5c-1.4 2.5-3.7 4.6-6.6 6.4-3.2 1.9-6.9 2.7-11.4 2.7zm-.6-38.2c-1.6 0-3.1.3-4.5.8-1.4.6-2.5 1.4-3.5 2.4s-1.7 2.2-2.3 3.6c-.6 1.4-.8 2.9-.8 4.6v.6h21.7v-.8c0-3.4-1-6.1-2.9-8.2-2-2-4.6-3-7.7-3z" class="st4"/>
	<path d="M390.165053 367.094405c-4.7 0-8.7-.8-12.1-2.2-3.4-1.5-6.1-3.5-8.2-6l5.6-5c1.9 2.1 4 3.7 6.4 4.8 2.4 1.1 5.2 1.6 8.4 1.6 3 0 5.3-.5 7.1-1.5 1.8-1 2.7-2.6 2.7-4.7 0-.9-.2-1.6-.5-2.2s-.8-1.1-1.4-1.5c-.6-.4-1.3-.7-2.1-.9-.8-.2-1.7-.4-2.5-.5l-6.9-1.1c-1.7-.2-3.4-.6-5.1-1.1s-3.3-1.2-4.7-2.1c-1.4-.9-2.5-2.1-3.3-3.6-.9-1.5-1.3-3.3-1.3-5.5 0-4.4 1.7-7.8 5.1-10.1s7.8-3.4 13.4-3.4c4 0 7.5.6 10.4 1.8 2.9 1.2 5.4 2.9 7.3 5l-5.1 5.4c-1.1-1.3-2.7-2.5-4.8-3.5-2.1-1.1-4.8-1.6-8.2-1.6-6.1 0-9.1 1.9-9.1 5.8 0 1.8.7 3.1 2 3.8 1.3.7 2.9 1.2 4.6 1.4l6.9 1.1c1.7.3 3.4.6 5.1 1.1 1.7.4 3.2 1.1 4.6 2.1 1.4.9 2.5 2.1 3.4 3.6.9 1.4 1.3 3.3 1.3 5.5 0 4.3-1.7 7.8-5.1 10.2-3.4 2.1-8 3.3-13.9 3.3z" class="st4"/>
</g>
<g id="pro">
\t<path d="M64.407002 92.983367c-1.7 0-2.9-.3-3.6-1.1-.8-.8-1.1-1.6-1.1-2.6v-1.6c0-1 .3-1.9 1.1-2.6.8-.8 1.9-1.1 3.6-1.1s2.9.3 3.6 1.1c.8.8 1.1 1.6 1.1 2.6v1.6c0 1-.3 1.9-1.1 2.6-.7.8-1.9 1.1-3.6 1.1z" class="st6"/>
	<path d="M80.557734 69.483367h6.6v4.3h.3c.6-1.5 1.3-2.6 2.4-3.5 1.1-.9 2.6-1.3 4.4-1.3 1.2 0 2.5.2 3.5.7 1 .4 2 1.2 2.7 2.2.8 1 1.3 2.2 1.8 3.8.4 1.5.7 3.4.7 5.4 0 2.1-.2 3.9-.7 5.4-.4 1.5-1 2.8-1.8 3.8s-1.7 1.7-2.7 2.2c-1 .4-2.2.7-3.5.7-1.9 0-3.4-.4-4.4-1.3-1.1-.9-1.9-2-2.5-3.5h-.3v13.1h-6.6v-32h.1zm10.8 18.5c1.5 0 2.7-.4 3.5-1.3.8-.9 1.2-2.1 1.2-3.8v-3.7c0-1.6-.4-2.8-1.2-3.8-.8-.9-2-1.3-3.5-1.3-1.1 0-2.1.3-3 .9s-1.2 1.5-1.2 2.7v6.8c0 1.2.4 2.1 1.2 2.7.9.5 1.9.8 3 .8z" class="st6"/>
	<path d="M108.008466 87.383367h5.4v-12.8h-5.4v-5.1h11.9v6.5h.3c.2-.8.6-1.7.9-2.5s.9-1.5 1.5-2.1c.6-.6 1.2-1.1 2.1-1.5s1.8-.6 2.9-.6h2.2v6.1h-4.9c-1.7 0-2.9.4-3.7 1.5s-1.2 2.1-1.2 3.6v6.8h7.7v5.2h-19.7v-5.1z" class="st6"/>
	<path d="M144.859198 92.983367c-1.8 0-3.4-.2-4.8-.8-1.5-.6-2.7-1.3-3.7-2.4-1-1-1.8-2.4-2.2-3.8-.6-1.5-.8-3.1-.8-5s.2-3.6.8-5 1.3-2.8 2.2-3.8c1-1 2.2-1.8 3.7-2.4 1.5-.7 3.1-.9 4.8-.9 1.8 0 3.4.3 4.8.9 1.5.6 2.7 1.4 3.6 2.4 1 1 1.8 2.4 2.4 3.8s.8 3.1.8 5-.2 3.6-.8 5c-.6 1.5-1.3 2.7-2.4 3.8-1 1-2.2 1.8-3.6 2.4s-3 .8-4.8.8zm0-4.9c1.5 0 2.7-.4 3.5-1.3.9-.9 1.2-2.2 1.2-3.9v-3.8c0-1.7-.4-3-1.2-3.9-.8-.9-2-1.3-3.5-1.3s-2.7.4-3.5 1.3c-.8.9-1.2 2.2-1.2 3.9v3.7c0 1.7.4 3 1.2 3.9.9 1 2.1 1.4 3.5 1.4z" class="st6"/>
</g>
</svg>
